<svg xmlns="http://www.w3.org/2000/svg" viewBox="0 0 512 512">
<defs>
 <linearGradient id="g" x1="0" y1="0" x2="1" y2="1">
  <stop offset="0" stop-color="#f7dd8a"/>
  <stop offset=".45" stop-color="#d7b45c"/>
  <stop offset="1" stop-color="#8a6125"/>
 </linearGradient>
 <radialGradient id="bg" cx=".35" cy=".22" r=".9">
  <stop offset="0" stop-color="#17130c"/>
  <stop offset=".58" stop-color="#070707"/>
  <stop offset="1" stop-color="#000"/>
 </radialGradient>
</defs>
<rect width="512" height="512" rx="112" fill="url(#bg)"/>
<rect x="10" y="10" width="492" height="492" rx="102" fill="none" stroke="#5f481f" stroke-width="5"/>
<circle cx="256" cy="256" r="170" fill="none" stroke="url(#g)" stroke-width="14"/>
<path d="M160 345V157h92c69 0 112 31 112 88 0 42-24 70-63 82l73 80h-72l-66-73h-17v11h-59zm59-63h31c34 0 54-12 54-36 0-25-20-36-54-36h-31v72z" fill="url(#g)"/>
<path d="M266 316l45 43 91-111" fill="none" stroke="url(#g)" stroke-width="30" stroke-linecap="round" stroke-linejoin="round"/>
</svg>